/* XPM */
static char * batery_xpm[] = {
"130 70 2 1",
" 	c None",
".	c #FFFFFF",
"             ........................................................................................                             ",
"          ..............................................................................................                          ",
"        ..................................................................................................                        ",
"       ....................................................................................................                       ",
"      ......................................................................................................                      ",
"      .......................................................................................................                     ",
"     .........................................................................................................                    ",
"     .........................................................................................................                    ",
"     ........                                                                                        .........                    ",
"    ........                                                                                          .........                   ",
"    ........                                                                                           ........                   ",
"    ........                                                                                           ........                   ",
"    ........                                                                                           ........                   ",
"    ........                                                                                           ........                   ",
"    ........                                                                                           ........                   ",
"    ........        ..              .                                                                  ........                   ",
"    ........       .....          .....          .....                                                 ..................         ",
"    ........      .......        .......        .......                                                ....................       ",
"    ........      .......        .......        .......                                                .....................      ",
"    ........     ........        .......        ........                                               .....................      ",
"    ........     ........        .......        ........                                               ......................     ",
"    ........     ........        .......        ........                                               ......................     ",
"    ........     ........        .......        ........                                               .......................    ",
"    ........     ........        .......        ........                                               ........       ........    ",
"    ........     ........        .......        ........                                               ........       ........    ",
"    ........     ........        .......        ........                                               ........       ........    ",
"    ........     ........        .......        ........                                               ........       ........    ",
"    ........     ........        .......        ........                                               ........       ........    ",
"    ........     ........        .......        ........                                               ........       ........    ",
"    ........     ........        .......        ........                                               ........       ........    ",
"    ........     ........        .......        ........                                               ........       ........    ",
"    ........     ........        .......        ........                                               ........       ........    ",
"    ........     ........        .......        .......                                                ........       ........    ",
"    ........     ........        .......        .......                                                ........       ........    ",
"    ........     ........        .......        .......                                                ........       ........    ",
"    ........     ........        .......        .......                                                ........       ........    ",
"    ........     ........        .......        .......                                                ........       ........    ",
"    ........     ........        .......        .......                                                ........       ........    ",
"    ........     ........        .......        .......                                                ........       ........    ",
"    ........     ........        .......        .......                                                ........       ........    ",
"    ........     ........        .......        .......                                                ........       ........    ",
"    ........     ........        .......        .......                                                ........       ........    ",
"    ........     ........        .......        .......                                                ........       ........    ",
"    ........     ........        .......        .......                                                ........       ........    ",
"    ........     ........        .......        .......                                                ........       ........    ",
"    ........     ........        .......        .......                                                ........       ........    ",
"    ........     ........        .......        .......                                                .......................    ",
"    ........     ........        .......        .......                                                .......................    ",
"    ........     ........        .......        .......                                                ......................     ",
"    ........     ........        .......        .......                                                ......................     ",
"    ........      .......        .......        .......                                                .....................      ",
"    ........      ......         .......        .......                                                ....................       ",
"    ........       .....          .....          .....                                                 ...................        ",
"    ........                                       .                                                   .................          ",
"    ........                                                                                           ........                   ",
"    ........                                                                                           ........                   ",
"    ........                                                                                           ........                   ",
"    ........                                                                                           ........                   ",
"    ........                                                                                           ........                   ",
"    ........                                                                                           .......                    ",
"    .........                                                                                         ........                    ",
"     .........................................................................................................                    ",
"     .........................................................................................................                    ",
"      .......................................................................................................                     ",
"      ......................................................................................................                      ",
"       .....................................................................................................                      ",
"         ..................................................................................................                       ",
"          ...............................................................................................                         ",
"             ..........................................................................................                           ",
"                                                                                                                                  "};
