/* XPM */
static char * 42_xpm[] = {
"64 64 17 1",
" 	c #FFFFFF",
".	c #FEFEFE",
"+	c #000000",
"@	c #F8F8F8",
"#	c #FDFDFD",
"$	c #FCFCFC",
"%	c #FAFAFA",
"&	c #FBFBFB",
"*	c #F0F0F0",
"=	c #F5F5F5",
"-	c #F1F1F1",
";	c #F3F3F3",
">	c #F6F6F6",
",	c #F7F7F7",
"'	c #F4F4F4",
")	c #F9F9F9",
"!	c #010101",
"                                                                ",
"                                                                ",
"                                                                ",
"                                                                ",
"                                                                ",
"                                                                ",
"                       ..........      ....................     ",
"                       +++++++++++    +++++++++++++++++++++@    ",
"                      ++++++++++++   #++++++++++++++++++++++    ",
"                   . ++++++++++++    $++++++++++++++++++++++    ",
"                    ++++++++++++     $+++++++++ ++++++++++++    ",
"                   ++++++++++++      $++++++++. ++++++++++++    ",
"                ..++++++++++++       $+++++++   ++++++++++++    ",
"                 ++++++++++++        $++++++    ++++++++++++    ",
"                ++++++++++++         $+++++     ++++++++++++    ",
"               ++++++++++++          $++++ .    ++++++++++++    ",
"            . ++++++++++++           $+++.      ++++++++++++    ",
"             ++++++++++++            #++        ++++++++++++    ",
"          . ++++++++++++             %+&        ++++++++++++    ",
"          .++++++++++++                        *+++++++++++*    ",
"          ++++++++++++                        =+++++++++++*     ",
"       . ++++++++++++                        -+++++++++++*      ",
"        ++++++++++++                       .;+++++++++++>       ",
"      .++++++++++++                        ;+++++++++++,        ",
"      ++++++++++++                        -+++++++++++#         ",
"   . ++++++++++++                        ;+++++++++++>          ",
"    ++++++++++++                        *+++++++++++$           ",
"   ++++++++++++                        '+++++++++++,            ",
" #++++++++++++                        ++++++++++++&             ",
" +++++++++++++++++++++++++++++++++    ++++++++++++#      .$+    ",
" +++++++++++++++++++++++++++++++++   $+++++++++++=.       ++    ",
" +++++++++++++++++++++++++++++++++   $+++++++++++=.      +++    ",
" +++++++++++++++++++++++++++++++++   $+++++++++++=.     ++++    ",
" +++++++++++++++++++++++++++++++++   $+++++++++++=.    +++++    ",
" +++++++++++++++++++++++++++++++++   $+++++++++++=.   ++++++    ",
" +++++++++++++++++++++++++++++++++   $+++++++++++=.  +++++++    ",
" +++++++++++++++++++++++++++++++++   $+++++++++++=# ++++++++    ",
" +++++++++++++++++++++++++++++++++   $+++++++++++' +++++++++    ",
" )++++++++++++++++++++++++++++++++   $+++++++++++&++++++++++    ",
"                      ++++++++++++   $++++++++++++++++++++++    ",
"                      ++++++++++++    +++++++++++++++++++++,    ",
"                      ++++++++++++                              ",
"                      ++++++++++++                              ",
"                      ++++++++++++                              ",
"                      ++++++++++++                              ",
"                      ++++++++++++                              ",
"                      ++++++++++++                              ",
"                      ++++++++++++                              ",
"                      !+++++++++++                              ",
"                                                                ",
"                                                                ",
"                                                                ",
"                                                                ",
"                                                                ",
"                                                                ",
"                                                                ",
"                                                                ",
"                                                                ",
"                                                                ",
"                                                                ",
"                                                                ",
"                                                                ",
"                                                                ",
"                                                                "};
