/* XPM */
static char *d3b99b5f5d7a439a976572a71204e918VzeaTd6TIGw8dkKr[] = {
/* columns rows colors chars-per-pixel */
"64 64 5 1 ",
"  c #940F05",
". c #0ECBD1",
"X c gray54",
"o c #B6B6B6",
"O c white",
/* pixels */
"o..............................................................o",
"o..............................................................o",
"o..............................................................o",
"o..............................................................o",
"o..............................................................o",
"o..............................................................o",
"o..............................................................o",
"oooooooooooooooooooooooooooooooooooooooooooooooooooooooooooooooo",
"oooooooooooooooooooooooooooooooooooooooooooooooooooooooooooooooo",
"o..............................................................o",
"o..............................................................o",
"o..............................................................o",
"o..............................................................o",
"o..............................................................o",
"o................X.............................................o",
"o...............XX.............................................o",
"o...............XX.............................................o",
"o...............XX.............................................o",
"o...............XX.............................................o",
"o...............XX.............................................o",
"o...............XX.............................................o",
"o...............XX.............................................o",
"o...............XX.............................................o",
"o...............XX.............................................o",
"o...............XX.............................................o",
"o...............XX.............................................o",
"o...............XX.............................................o",
"o..............XXX.............................................o",
"o.............XXXX.............................................o",
"o............XXXXX.............................................o",
"o...........XXX.XX.............................................o",
"o..........XXXX.XX..........................................   o",
"o.........XXXX..XX.........................................    o",
"o........XXXXX..XX........................................     o",
"o.......XXXXX...XX.......................................     .o",
"o......XXXXX....XX.......................................    ..o",
"o.....XXXXXXX....X...........XX.........................     ..o",
"o....XXXXXXXXX......XXXXXX..XXXX........................    ...o",
"OOOOOOOOOOOOOOOOOOOOOOOOOOOOOOOOOO.....................     ...o",
"OOOOOOOOOOOOOOOOOOOOOOOOOOOOOOOOOO.....................    ....o",
"OOOOOOOOOOOOOOOOOOOOOOOOOOOOOOOOOO....................     ....o",
"OOOOOOOOOOOOOOOOOOOOOOOOOOOOOOOOOO....................    .....o",
"OOOOOOOOOOOOOOOOOOOOOOOOOOOOOOOOOO...................     .....o",
"OOOOOOOOOOOOOOOOOOOOOOOOOOOOOOOOOO............           ......o",
"OOOOOOOOOOOOOOOOOOOOOOOOOOOOOOOOOO..........             ......o",
"OOOOOOOOOOOOOOOOOOOOOOOOOOOOOOOOOO.........             .......o",
"OOOOOOOOOOOOOOOOOOOOOOOOOOOOOOOOOO..................    .......o",
"OOOOOOOOOOOOOOOOOOOOOOOOOOOOOOOOOO.................    ........o",
"OOOOOOOOOOOOOOOOOOOOOOOOOOOOOOOOOO....                 ........o",
"OOOOOOOOOOOOOOOOOOOOOOOOOOOOOOOOOO...                 .........o",
"OOOOOOOOOOOOOOOOOOOOOOOOOOOOOOOOOO...                 .........o",
"OOOOOOOOOOOOOOOOOOOOOOOOOOOOOOOOOO...........XXXX..............o",
"OOOOOOOOOOOOOOOOOOOOOOOOOOOOOOOOOO..........XXXXXX.............o",
"OOOOOOOOOOOOOOOOOOOOOOOOOOOOOOOOOO.........XXXXXXXX............o",
"OOOOOOOOOOOOOOOOOOOOOOOOOOOOOOOOOO........XXXX..XXXX...........o",
"OOOOOOOOOOOOOOOOOOOOOOOOOOOOOOOOOO.......XXXX....XXXX..........o",
"OOOOOOOOOOOOOOOOOOOOOOOOOOOOOOOOOO.......XXX......XXX..........o",
"OOOOOOOOOOOOOOOOOOOOOOOOOOOOOOOOOO......XXX........XXX.........o",
"OOOOOOOOOOOOOOOOOOOOOOOOOOOOOOOOOO......XX..........XX.........o",
"OOOOOOOOOOOOOOOOOOOOOOOOOOOOOOOOOO......XX..........XX.........o",
"OOOOOOOOOOOOOOOOOOOOOOOOOOOOOOOOOO.....XX............XX........o",
"OOOOOOOOOOOOOOOOOOOOOOOOOOOOOOOOOO.....XX............XX........o",
"OOOOOOOOOOOOOOOOOOOOOOOOOOOOOOOOOO....XX..............XX.......o",
"OOOOOOOOOOOOOOOOOOOOOOOOOOOOOOOOOO....XX..............XX.......o"
};
